<svg xmlns="http://www.w3.org/2000/svg" width="270" height="41" viewBox="0 0 270 41">
  <g fill="none" fill-rule="evenodd">
    <path fill="#FFF" fill-rule="nonzero" d="M59.1903191,31.5268085 C56.1714894,28.5051064 54.6405319,24.7825532 54.6405319,20.3562766 C54.6405319,15.93 56.1714894,12.1643617 59.2362766,9.06223404 C62.3010638,5.96010638 66.1040426,4.4262766 70.5705319,4.4262766 C75.0370213,4.4262766 78.8055319,5.95723404 81.8674468,9.06223404 C84.8945783,11.9948395 86.5718607,16.0502648 86.5005319,20.2643617 C86.5005319,24.6504255 84.9695745,28.3729787 81.8674468,31.4348936 C78.7653191,34.4968085 75.0398936,36.0306383 70.5303191,36.0306383 C66.0207447,36.0306383 62.2120213,34.5456383 59.1903191,31.5268085 Z M77.355,13.2817021 C75.556419,11.4797979 73.1150243,10.4672189 70.5690957,10.4672189 C68.0231672,10.4672189 65.5817725,11.4797979 63.7831915,13.2817021 C61.9219149,15.1429787 61.011383,17.5011702 61.011383,20.2729787 C61.011383,23.0447872 61.9219149,25.362766 63.7429787,27.2240426 C67.5435025,30.9194795 73.5946889,30.9194795 77.3952128,27.2240426 C79.2564894,25.362766 80.1670213,23.0457447 80.1268085,20.2729787 C80.1382979,17.4580851 79.2162766,15.1429787 77.355,13.2817021 Z"/>
    <polygon fill="#FFF" points="105.61 12.992 112.021 12.992 102.215 35.499 97.749 35.499 87.983 12.992 94.394 12.992 100.064 27.595"/>
    <path fill="#FFF" fill-rule="nonzero" d="M135.519894,26.3135106 L118.598936,26.3135106 C119.42617,29.4989362 121.620638,31.1131915 125.179468,31.1131915 C127.770084,31.0417381 130.290323,30.2543498 132.460851,28.8382979 L134.775957,32.9342553 C131.915844,35.0062576 128.460868,36.0947567 124.929574,36.036383 C120.957128,36.036383 117.938298,34.8874468 115.827128,32.5895745 C113.715957,30.2917021 112.684787,27.5026596 112.684787,24.2339362 C112.684787,20.7871277 113.759043,17.9865957 115.950638,15.7519149 C118.142234,13.517234 120.957128,12.3998936 124.43266,12.3998936 C127.701383,12.3998936 130.432979,13.4339362 132.541277,15.4618085 C134.649574,17.4896809 135.726702,20.2212766 135.726702,23.7370213 C135.716286,24.5995477 135.64719,25.4603658 135.519894,26.3135106 Z M118.598936,21.9676596 L130.059574,21.9676596 C129.522447,19.0321277 127.411277,17.2512766 124.43266,17.2512766 C121.5,17.2512766 119.30266,19.0321277 118.598936,21.9676596 Z"/>
    <path fill="#FFF" d="M139.739362,35.5394681 L139.739362,12.9915957 L145.340426,12.9915957 L145.340426,16.0104255 C146.704787,13.5689362 148.772872,12.3711702 151.544681,12.3711702 C152.477283,12.3756115 153.401858,12.5438045 154.276277,12.8680851 L153.779362,18.4519149 C152.910134,18.170277 152.004364,18.0173799 151.090851,17.9980851 C147.779043,17.9980851 145.587447,20.1494681 145.587447,24.822766 L145.587447,35.5394681 L139.739362,35.5394681 Z"/>
    <path fill="#FFF" fill-rule="nonzero" d="M177.884043,15.8467021 C180.036383,18.1215957 181.111596,20.9345745 181.109681,24.2856383 C181.107766,27.6367021 180.032553,30.4506383 177.884043,32.7274468 C175.73266,34.9592553 173.044149,36.0765957 169.858723,36.0765957 C167.003617,36.0765957 164.688511,34.9592553 162.824362,32.7274468 L162.824362,35.5394681 L157.157234,35.5394681 L157.157234,4.4262766 L162.990957,4.4262766 L162.990957,15.5968085 C164.852234,13.4885106 167.127128,12.411383 169.858723,12.411383 C172.902375,12.3542539 175.824404,13.6050581 177.884043,15.8467021 Z M164.47883,28.8785106 C165.660476,30.0697169 167.268881,30.7397391 168.946755,30.7397391 C170.624629,30.7397391 172.233034,30.0697169 173.414681,28.8785106 C174.56369,27.6133074 175.180926,25.9539704 175.138085,24.2454255 C175.1897,22.5465869 174.570613,20.8956893 173.414681,19.6496809 C172.265266,18.4122575 170.636192,17.7333895 168.948191,17.7884043 C167.127128,17.7884043 165.636383,18.4088298 164.47883,19.6898936 C163.331885,20.9241653 162.713333,22.558173 162.755426,24.2425532 C162.713029,25.951884 163.330157,27.6119567 164.47883,28.8785106 Z"/>
    <polygon fill="#FFF" points="190.778 35.539 184.944 35.539 184.944 4.426 190.778 4.426"/>
    <path fill="#FFF" fill-rule="nonzero" d="M197.961702,15.8467021 C200.236596,13.527766 203.132872,12.3692553 206.650532,12.3711702 C210.168191,12.3730851 213.063511,13.5315957 215.336489,15.8467021 C217.614255,18.1215957 218.731596,20.933617 218.731596,24.2454255 C218.731596,27.557234 217.614255,30.4094681 215.336489,32.6843617 C213.058723,34.9592553 210.166277,36.1311702 206.650532,36.1311702 C203.134787,36.1311702 200.236596,34.982234 197.961702,32.6843617 C195.686809,30.3864894 194.569468,27.5945745 194.569468,24.2454255 C194.569468,20.8962766 195.683936,18.1215957 197.961702,15.8467021 Z M206.650532,30.6995745 C208.323676,30.7377017 209.933712,30.0606716 211.076809,28.8382979 C212.263267,27.604629 212.917306,25.9540572 212.897872,24.2425532 C212.924797,22.542405 212.268822,20.9024664 211.076809,19.6898936 C209.933712,18.4675199 208.323676,17.7904898 206.650532,17.828617 C204.964641,17.7894895 203.340941,18.4656837 202.18117,19.6898936 C201.000202,20.9064763 200.35928,22.5476107 200.403191,24.2425532 C200.366594,25.9489961 201.005635,27.6007991 202.18117,28.8382979 C203.340941,30.0625078 204.964641,30.738702 206.650532,30.6995745 Z"/>
    <path fill="#FFF" d="M224.976064,32.7274468 C222.741383,30.5329787 221.624043,27.6778723 221.624043,24.2454255 C221.624043,20.8129787 222.741383,17.955 225.016277,15.7634043 C227.29117,13.5287234 230.186489,12.411383 233.748191,12.411383 C238.343936,12.411383 242.393936,14.6891489 244.255213,18.7018085 L239.579043,21.2553191 C238.214681,18.9804255 236.270106,17.8085106 233.834362,17.8085106 C232.108356,17.75219 230.439002,18.4282784 229.238617,19.6697872 C228.034435,20.874163 227.377183,22.5198885 227.420426,24.2224468 C227.420426,26.0837234 227.994894,27.6146809 229.198404,28.8555319 C230.389426,30.0535312 232.019041,30.711605 233.707979,30.6765957 C236.06617,30.6765957 238.464574,29.2691489 239.45266,27.2843617 L244.169043,30.0561702 C242.224468,33.6954255 238.211809,36.0134043 233.578723,36.0134043 C230.074468,36.036383 227.202128,34.9190426 224.976064,32.7274468 Z"/>
    <polygon fill="#FFF" points="262.581 35.539 255.136 25.9 253.605 27.264 253.605 35.539 247.771 35.539 247.771 4.426 253.605 4.426 253.605 20.681 261.797 12.986 269.161 12.986 259.108 22.212 269.736 35.534"/>
    <path fill="#0AF" d="M6.81606383,40.6407447 L6.81606383,6.72702128 L23.4009574,6.72702128 L23.4009574,29.0680851 L29.9585106,29.0680851 L29.9585106,0.143617021 L6.81606383,0.143617021 C3.19601356,0.143617021 0.261382979,3.0782476 0.261382979,6.69829787 L0.261382979,34.0831915 C0.261382631,37.7037067 3.19554898,40.6391588 6.81606383,40.6407447 Z"/>
    <path fill="#0AF" d="M41.5282979,34.0831915 L41.5282979,6.70117021 C41.5282982,3.07906866 38.5928459,0.14233054 34.9707447,0.140744681 L34.9707447,34.0544681 L18.3829787,34.0544681 L18.3829787,11.7134043 L11.8311702,11.7134043 L11.8311702,40.6378723 L34.9707447,40.6378723 C38.5912599,40.6378727 41.526712,37.7037063 41.5282979,34.0831915 Z"/>
  </g>
</svg>
